<?xml version="1.0" encoding="utf-8"?>
<!-- Generator: Adobe Illustrator 27.3.0, SVG Export Plug-In . SVG Version: 6.00 Build 0)  -->
<svg version="1.1" id="Calque_1" xmlns="http://www.w3.org/2000/svg" xmlns:xlink="http://www.w3.org/1999/xlink" x="0px" y="0px"
	 viewBox="0 0 800 800" style="enable-background:new 0 0 800 800;" xml:space="preserve">
<g>
	<path d="M125.89,285.93l-27.23-13.21l2.06-3.82c19.34,4.84,26.66,0.67,33.3-11.97c4.97-9.25,4.39-17.03-4.98-22.07
		c-10.85-5.84-20.74,2.2-31.97,9.19c-10.98,6.81-22.27,13.62-35.21,6.65c-12.95-6.96-14.15-21.28-7.37-34.17
		c6.04-11.22,11.32-11.88,12.91-14.83c1.06-1.97,0.74-3.74-1.52-5.75l1.72-3.21l25.12,12.4l-1.99,3.7
		c-15.42-3.84-24.47-2.67-31.05,9.85c-4.51,8.38-3.15,15.31,4.49,19.43c9.25,4.97,18.46-1.52,28.74-7.91
		c12.07-7.66,24.18-16.88,38.85-8.99c14.3,7.69,16.3,22.6,8.61,36.9c-6.9,12.82-13.18,15.64-14.71,18.48
		c-0.93,1.73-0.12,4.07,2.28,5.52L125.89,285.93z"/>
	<path d="M94.2,167.82c-3.29-2.61-4.23-7.28-1.19-11.12c3.04-3.84,7.81-4,11.1-1.39c3.4,2.69,4.34,7.37,1.3,11.21
		C102.46,170.25,97.6,170.51,94.2,167.82z M157.05,227.59l-3.07-2.43c5.82-7.35,4.33-9.07-1.93-14.03l-30.62-24.25
		c-4.72-3.74-6.46-2.44-8.98,0.74c-1.22,1.54-1.95,2.92-1.95,2.92l-3.18-2.52l7.88-16.26l2.26-2.85l41.82,33.11
		c6.37,5.04,8.45,5.8,14.27-1.56l3.07,2.43L157.05,227.59z"/>
	<path d="M202.11,163.2c1.31,9.23,2.1,14.3-4.35,20.51c-6.76,6.51-13.18,5.69-21.92-3.39l-30.1-31.27l-5.55,5.34l-2.23-2.32
		c1.92-7.49,0.39-15.14-4.23-27.21l2.52-2.43l13.79,14.32l11.4-10.97l4.08,4.24L154.11,141l27.38,28.44
		c6.89,7.16,10.13,8.71,14.07,4.92c3.23-3.11,3.28-5.68,3.08-10.93L202.11,163.2z"/>
	<path d="M191.86,141.39c-13.1-19.36-8.48-36.02,5.09-45.2c12.64-8.55,27.19-5.04,38.75,10.8l-36.76,24.87
		c10.9,15.61,24.47,17.42,33.97,10.99c9.39-6.35,10.16-12.96,10.58-20.34l3.3,0.13c1.79,11.64,1.17,22.71-10.78,30.79
		C222.1,162.85,204.49,160.05,191.86,141.39z M221.89,110.08c-6.15-8.34-15.32-13.64-23.55-8.07c-8.12,5.49-8.52,14.39-2.19,25.49
		L221.89,110.08z"/>
	<path d="M281.87,89.68c-6.46-22.47,3.1-36.87,18.84-41.39c14.67-4.21,27.41,3.63,33.49,22.28l-42.65,12.25
		c5.53,18.22,17.86,24.15,28.89,20.98c10.9-3.13,13.68-9.17,16.36-16.06l3.1,1.15c-1.91,11.62-5.93,21.95-19.79,25.93
		C303.96,119.45,288.09,111.34,281.87,89.68z M320.12,69.22c-3.26-9.84-10.33-17.71-19.89-14.97c-9.42,2.71-12.56,11.04-9.99,23.55
		L320.12,69.22z"/>
	<path d="M390.5,102.62l-0.19-3.92c9.93-0.48,10.23-2.88,9.86-10.71l-1.22-25.31c-0.81-16.78-7.51-19.12-13.8-18.82
		c-7.55,0.36-12.48,5.65-16.5,9.62l1.73,35.94c0.38,7.83,1.05,10.18,11.12,9.7l0.19,3.92l-32.02,1.54l-0.19-3.92
		c9.37-0.45,9.67-2.85,9.3-10.68l-1.89-39.29c-0.24-5.03-2.39-6.05-6.17-5.87c-2.38,0.11-3.76,0.46-3.76,0.46l-0.2-4.06l17.56-4.91
		l3.22-0.15l0.41,11.33l0.56-0.03c7.23-7.08,13.14-12.41,21.95-12.83c12.73-0.61,19.16,7.91,19.94,23.99l1.39,28.81
		c0.38,7.83,1.47,10.16,10.84,9.71l0.19,3.92L390.5,102.62z"/>
	<path d="M516.49,104.51c-8.29,9.39-17.36,15.92-31.73,11.71c-16.79-4.92-23.05-20.91-17.58-39.58
		c6.18-21.09,21.21-31.57,40.56-25.9c12.63,3.7,18.53,12.43,16.25,20.23c-1.14,3.9-3.65,5.49-7.41,4.39
		c-9.94-2.91-1.02-16.93-12.58-20.32c-10.88-3.19-19.83,2.94-24.36,18.39c-4.8,16.39-1.61,29.87,12.23,33.93
		c8.73,2.56,14.29,0.54,22.61-5.48L516.49,104.51z"/>
	<path d="M550.62,143.36l2-3.54c8.41,4.75,10.28,2.59,13.58-3.26l11.91-21.09c5.64-10,9.05-19.16-0.82-24.74
		c-4.75-2.68-10.31-3.09-19.38-0.98l-18.03,31.94c-3.58,6.34-4.07,8.63,4.34,13.38l-2,3.54l-27.67-15.62l2-3.54
		c6.34,3.58,9.08,3.84,12.94-2.98l35.24-62.41c2.41-4.27,0.07-6.39-3.22-8.25c-1.95-1.1-3.67-1.75-3.67-1.75l1.93-3.41l18.74,4.96
		l3.29,1.86l-20.86,36.94l0.37,0.21c11.74-2.86,18.93-2.49,25.39,1.15c14.02,7.92,9.25,21.78,3.6,31.78l-13.7,24.26
		c-3.65,6.46-3.62,9.53,4.06,13.87l-2,3.54L550.62,143.36z"/>
	<path d="M591.66,151.95c12.57-13.54,33.21,0.65,44.6,6.08l4.19-4.51c8.29-8.92,8.35-15.17,2.2-20.88
		c-5.85-5.43-8.87-4.23-14.59,1.93c-2.95,3.18-6.02,3.19-8.9,0.53c-2.05-1.91-2.88-5.54,0.26-8.93c5.33-5.74,17.35-4.9,28.53,5.48
		c11.18,10.38,10.62,19.42,0.72,30.09l-21.62,23.29c-3.91,4.21-3.74,5.88-1.59,7.88c1.95,1.81,4.34,2.12,7.2,1.91l0.01,3.07
		c-7.96,1.78-12.42,1.65-17.65-3.21c-4.51-4.19-3.35-7.5,0.23-12.59l-0.41-0.38c-8.73-0.27-15.09-0.83-21.65-6.93
		C585.3,167.44,585.56,158.52,591.66,151.95z M633.12,161.41c-11.53-6.31-22.72-11.54-30.15-3.54c-4.76,5.13-4.74,11.07-0.33,15.17
		c3.38,3.14,8.6,4.93,14.76,5.3L633.12,161.41z"/>
	<path d="M650.4,239.24l3.26-2.18c5.52,8.27,7.73,7.29,14.25,2.94l21.08-14.07c13.97-9.33,12.53-16.28,9.03-21.52
		c-4.2-6.29-11.26-7.8-16.74-9.19l-29.92,19.98c-6.52,4.35-8.19,6.14-2.59,14.52l-3.26,2.18l-17.8-26.66l3.26-2.18
		c5.21,7.8,7.42,6.83,13.94,2.48l32.72-21.84c4.19-2.8,3.96-5.17,1.86-8.31c-1.32-1.98-2.33-2.99-2.33-2.99l3.38-2.25l13.25,12.53
		l1.79,2.68l-9.51,6.18l0.31,0.47c9.79,2.56,17.4,4.88,22.3,12.22c7.07,10.6,3.08,20.5-10.31,29.44l-23.99,16.01
		c-6.52,4.35-7.96,6.49-2.75,14.29l-3.26,2.18L650.4,239.24z"/>
	<path d="M693.14,303.27c-9.07-2.18-14.07-3.31-17.47-11.6c-3.56-8.68-0.44-14.35,11.22-19.13l40.15-16.47l-2.92-7.12l2.98-1.22
		c6.25,4.55,13.94,5.94,26.86,6.08l1.33,3.24l-18.39,7.54l6,14.64l-5.44,2.23l-6-14.64l-36.53,14.98
		c-9.2,3.77-11.83,6.21-9.75,11.27c1.7,4.15,4.08,5.14,9.03,6.89L693.14,303.27z"/>
	<path d="M684.16,310.34l3.8-0.98c2.35,9.08,4.62,8.93,12.35,6.93l37.82-9.78c5.83-1.51,5.84-3.68,4.83-7.61
		c-0.49-1.9-1.15-3.32-1.15-3.32l3.93-1.02l8.21,16.1l0.91,3.52l-51.64,13.35c-7.86,2.03-9.72,3.24-7.37,12.32l-3.79,0.98
		L684.16,310.34z M769.75,296.31c4.07-1.05,8.36,1.02,9.59,5.76c1.23,4.74-1.53,8.64-5.59,9.69c-4.2,1.09-8.5-0.98-9.72-5.73
		C762.83,301.42,765.55,297.4,769.75,296.31z"/>
	<path d="M727.26,344.05c23.3-1.98,35.57,10.19,36.95,26.51c1.29,15.21-8.88,26.18-28.35,28.54l-3.75-44.22
		c-18.95,1.89-27.15,12.84-26.18,24.28c0.96,11.3,6.35,15.2,12.59,19.16l-1.73,2.82c-11.03-4.12-20.38-10.07-21.6-24.44
		C693.76,359.96,704.8,345.96,727.26,344.05z M739.91,385.55c10.29-1.29,19.38-6.7,18.54-16.61c-0.83-9.76-8.39-14.46-21.17-14.36
		L739.91,385.55z"/>
	<path d="M698.22,408.14l4.04,0.41c-0.94,9.19,0.63,10.34,8.43,11.13l38.3,3.91c5.01,0.51,7.52,0.77,8.03-4.25
		c0.28-2.79,0.16-4.35,0.16-4.35l3.9,0.4l2.42,17.7l-0.34,3.34l-14.35-1.46l-0.04,0.42c9.58,8.16,14.03,12.83,13.35,19.52
		c-0.55,5.43-3.89,7.77-8.62,7.28c-5.29-0.54-7.21-3.83-6.9-6.9c0.47-4.6,5.49-6.9,5.66-8.57c0.33-3.2-5.07-8.26-10.3-12.17
		l-31.76-3.24c-8.78-0.9-10.44,1.61-11.5,12.05l-4.04-0.41L698.22,408.14z"/>
</g>
</svg>
