<?xml version="1.0" encoding="utf-8"?>
<!-- Generator: Adobe Illustrator 27.3.0, SVG Export Plug-In . SVG Version: 6.00 Build 0)  -->
<svg version="1.1" id="Calque_1" xmlns="http://www.w3.org/2000/svg" xmlns:xlink="http://www.w3.org/1999/xlink" x="0px" y="0px"
	 viewBox="0 0 800 800" style="enable-background:new 0 0 800 800;" xml:space="preserve">
<g>
	<path d="M124.29,288.45l-23.72-19.66l1.88-3.44c17.56,8.16,24.02,6.26,30.68-6.21c5.57-10.2,5.12-20.18-4.27-25.47
		c-10.38-5.83-19.78-0.59-30,4.99c-0.07,0.12-0.19,0.06-0.26,0.18c-9.59,5.29-17.95,9.5-29.25,3.32
		c-14.25-7.79-14.88-25.04-7.36-38.8c5.84-10.69,10.95-11.57,12.42-14.27c1.14-2.09,0.96-4.1-0.94-6.74l1.61-2.95l21.55,17.2
		l-1.95,3.56c-13.78-6.89-21.56-6.67-28.34,5.74c-5.57,10.2-3.7,19.04,5.15,23.87c7.49,4.09,16.29-0.03,25.57-5.33
		c10.8-5.75,20.48-11.79,32.27-5.34c15.6,8.52,17.69,26.9,9.37,42.13c-6.98,12.78-12.68,14.45-14.22,17.28
		c-0.94,1.72-0.35,4.44,1.84,6.27L124.29,288.45z"/>
	<path d="M102.23,159.3c-3.7-3-4.04-7.24-1.13-10.83s6.98-3.71,10.57-0.8c3.7,3,3.67,7.48,1.02,10.74
		C110.04,161.67,106.03,162.38,102.23,159.3z M156.36,218.35c-1.85-1.5-3.89-3.87-9.16-10.49l-21.38-26.54c0,0-1.26-1.56-3.11-3.06
		c-1.41-1.15-3.59-2.01-5.98,0.92c-1.5,1.85-2.78,3.87-2.78,3.87l-2.94-2.38l11.15-16.19l1.94-2.39l32.09,39.55
		c0,0,2.6,3.01,4.13,4.25c1.41,1.15,2.59,1.02,3.65-0.28c3-3.7,1.77-9.74,1.23-13.07l3.39-0.85c2.24,8.13,4.89,17.31-0.93,24.48
		C164.15,220.52,160.16,221.44,156.36,218.35z"/>
	<path d="M181.29,188.95c-1.64-1.73-4.02-5.25-4.78-6.46l-24.62-39.75l-5.79,5.5l-1.62-2.52c3.32-9.52,3.54-14.37,0.23-28.02
		l3.05-2.89l9.51,15.3l10.05-9.54l2.95,4.73l-10.05,9.54l22.54,36.13c0,0,2.47,4.02,4.11,5.75c1.06,1.12,2.33,1.84,3.75,0.49
		c2.94-2.8,3.63-6.34,2.84-14.29l3.48-0.41c0.82,6.75,3.69,18.32-4.33,25.93C188.33,192.5,184.28,192.1,181.29,188.95z"/>
	<path d="M198.99,149.43c-11.4-16.63-13.47-44.4,5.24-57.23c4.96-3.4,13.3-7.08,19.48,1.92c9.9,14.43-5.31,33.85-18.1,44.15
		c0.32,0.46,0.71,1.04,1.03,1.5c8,11.66,14.61,12.39,22.34,7.09c5.77-3.96,9.74-9.56,10.44-18.19l3.27,0.31
		c0.2,15.14-5.47,23.95-12.86,29.02C217.12,166.7,205.96,159.59,198.99,149.43z M213.46,100.47c-2.85-4.16-5.74-5.4-9.2-3.03
		c-8.66,5.94-6.36,24.9-0.57,37.05C215.95,124.9,220.98,111.44,213.46,100.47z"/>
	<path d="M278.06,102.72c-6.21-19.18-0.31-46.4,21.27-53.39c5.73-1.85,14.77-3.02,18.13,7.37c5.39,16.65-14.7,30.96-29.89,37.2
		c0.17,0.53,0.39,1.2,0.56,1.73c4.36,13.45,10.49,16.03,19.41,13.14c6.66-2.16,12.05-6.41,15.18-14.48l3.04,1.22
		c-4.11,14.58-12.05,21.41-20.57,24.18C290.54,124.44,281.86,114.44,278.06,102.72z M305.84,59.88c-1.55-4.79-3.97-6.81-7.97-5.51
		c-9.99,3.24-13.16,22.07-11.06,35.37C301.29,84.02,309.94,72.53,305.84,59.88z"/>
	<path d="M378.06,96.35c-0.21-2.23,0.11-4.79,0.32-5.52l5.16-32.98c0,0,0.6-4,0.34-6.78c-0.3-3.21-1.51-5.48-4.57-5.19
		c-9.9,0.94-22.42,27.45-25.97,37.49l-2.92,22.5l-11.43,1.09l6.25-54.04c0,0,0.32-2.56,0.12-4.65c-0.23-2.37-1.75-3.63-4.96-3.33
		c-1.81,0.17-4.57,0.72-4.57,0.72l-0.36-3.76l19.23-3.38l3.07-0.29l-4.09,30.91l1.11-0.11c4.72-11,14.5-32.32,30.53-33.84
		c6.83-0.65,9.38,4.03,9.86,9.05c0.44,4.6-0.04,8.44-0.27,10.43l-4.74,32.94c0,0-0.26,1.71-0.1,3.38c0.15,1.53,1.09,2.57,2.9,2.4
		c4.88-0.46,7.79-5.38,9.62-8.23l3.13,1.81c-3.13,5.5-7.78,15.79-17.68,16.73C381.07,104.36,378.46,100.53,378.06,96.35z"/>
	<path d="M447.8,81.78c5.25-23.21,25.74-38.96,44.86-34.64c8.47,1.91,14.57,7.31,12.56,16.19c-1.24,5.46-4.82,9.25-9.87,8.1
		c-3.28-0.74-4.79-2.95-4.11-5.95c0.8-3.55,4.26-6.79,4.76-8.97c0.46-2.05-1.49-4.21-5.72-5.17c-14.47-3.27-27.04,14.84-30.65,30.82
		c-2.72,12.02,0.62,18.22,10.86,20.54c8.88,2.01,15.07-0.61,20.33-4.88l1.86,2.57c-7.38,7.23-17.8,13.34-30.09,10.57
		C449.21,107.94,444.44,96.67,447.8,81.78z"/>
	<path d="M534.28,126.74c0.95-2.03,2.39-4.13,2.94-4.65l21.17-25.81c0,0,2.55-3.14,3.73-5.67c1.36-2.92,1.48-5.49-1.31-6.79
		c-9.01-4.21-33.57,11.67-41.65,18.71l-13.92,18.22l-10.4-4.86l51.99-69.97c0,0,1.51-2.23,2.39-4.13c0.89-1.9,0.02-4.01-2.52-5.19
		c-1.65-0.77-4.43-1.76-4.43-1.76l1.54-3.3l18.03,6.72l2.92,1.36l-28.44,37.4L526.17,90.5l1.01,0.47
		c9.64-7.08,29.65-20.15,44.24-13.33c6.34,2.96,6.17,8.29,4.04,12.86c-1.54,3.3-4.32,7.26-5.53,8.85l-20.79,25.98
		c0,0-1.22,1.29-1.93,2.81c-0.65,1.4-0.36,2.77,1.29,3.54c4.57,2.13,9.57-0.63,12.59-2.15l1.78,3.15
		c-5.49,3.15-14.71,9.66-23.84,5.4C532.69,135.11,532.5,130.54,534.28,126.74z"/>
	<path d="M574.32,130.39c15.62-19.41,41.76-24.43,55.73-13.2c5.56,4.48,6.6,9.44,6.25,14.56l0.44,0.35l7.85-1.95l5.56,4.48
		l-39.14,32.12c0,0-2.48,1.96-3.79,3.6c-1.14,1.42-1.41,2.64,0.23,3.96c3.49,2.81,9.62,1.45,12.53,0.74l0.87,3.39
		c-9.43,3.01-18.12,4.65-24.88-0.79c-3.82-3.07-4.57-6.38-1.76-9.87c1.32-1.64,3.25-3.14,4.87-4.71l-0.65-0.53
		c-11.07,2.59-19.53,1.72-25.53-3.11C565.47,153.45,563.97,143.26,574.32,130.39z M608.82,153.84c4.6-3.49,14.88-11.57,18.21-15.71
		c3.95-4.91,4.91-12.58-0.98-17.32c-10.04-8.07-29.15,1.16-41,15.89c-7.81,9.71-7.04,15-2.46,18.69
		C589.26,160.74,600.54,160.11,608.82,153.84z"/>
	<path d="M646.75,221.67c1.78-1.36,4.13-2.44,4.85-2.64l30.74-13.01c0,0,3.71-1.59,5.94-3.29c2.56-1.95,3.86-4.17,2-6.62
		c-6.02-7.91-35.15-4.57-45.55-2.29l-20.66,9.38l-6.95-9.14l49.21-23.19c0,0,2.34-1.08,4.02-2.35c1.89-1.44,2.16-3.4,0.21-5.97
		c-1.1-1.45-3.02-3.51-3.02-3.51l3.01-2.29l13.01,14.55l1.87,2.45l-28.42,12.83l0.68,0.89c11.83-1.79,35.11-4.72,44.86,8.09
		c4.15,5.46,1.53,10.1-2.49,13.15c-3.68,2.8-7.19,4.42-9.01,5.27l-30.49,13.34c0,0-1.59,0.68-2.93,1.7
		c-1.23,0.93-1.61,2.28-0.51,3.73c2.97,3.9,8.68,3.78,12.07,3.84l0.11,3.61c-6.33,0.24-17.52,1.72-23.54-6.19
		C641.54,228.45,643.41,224.21,646.75,221.67z"/>
	<path d="M666.63,254c2.13-1.05,6.21-2.28,7.59-2.65l45.27-11.7l-3.53-7.16l2.88-0.8c8.11,6,12.67,7.65,26.69,8.54l1.86,3.77
		l-17.43,4.53l6.13,12.43l-5.39,1.41l-6.13-12.43l-41.2,10.78c0,0-4.58,1.16-6.71,2.22c-1.38,0.68-2.45,1.68-1.58,3.43
		c1.79,3.64,4.98,5.35,12.8,6.96l-0.65,3.44c-6.69-1.23-18.58-1.92-23.47-11.84C661.15,259.66,662.74,255.91,666.63,254z"/>
	<path d="M683.7,290.85c2.25-0.76,5.35-1.22,13.76-2.15l33.85-3.94c0,0,1.99-0.23,4.25-1c1.72-0.58,3.62-1.97,2.41-5.55
		c-0.76-2.25-1.79-4.42-1.79-4.42l3.58-1.21l7.75,18.07l0.99,2.92l-50.57,6.06c0,0-3.94,0.6-5.79,1.23
		c-1.72,0.58-2.25,1.65-1.71,3.24c1.53,4.51,7.29,6.69,10.4,8l-1.09,3.33c-8.07-2.44-17.25-5.09-20.21-13.84
		C677.7,296.28,679.06,292.42,683.7,290.85z M762.52,276.54c4.51-1.53,8.28,0.44,9.76,4.82c1.48,4.38-0.58,7.88-4.95,9.37
		c-4.51,1.53-8.28-0.89-9.63-4.86S757.88,278.11,762.52,276.54z"/>
	<path d="M711.5,321.24c19.87-3.42,45.98,6.28,49.83,28.64c1.02,5.93,0.89,15.05-9.87,16.9c-17.25,2.97-28.55-18.95-32.58-34.88
		c-0.55,0.1-1.24,0.21-1.79,0.31c-13.93,2.4-17.36,8.1-15.76,17.35c1.19,6.9,4.63,12.84,12.18,17.08l-1.64,2.84
		c-13.84-6.14-19.49-14.97-21.01-23.8C688.23,330.5,699.36,323.33,711.5,321.24z M749.96,354.81c4.97-0.86,7.3-2.96,6.59-7.1
		c-1.78-10.35-19.98-16.16-33.44-15.97C726.72,346.89,736.85,357.07,749.96,354.81z"/>
	<path d="M697.8,381.56l48.55,11.15c2.51,0.6,6.14,1.36,8.66,1.4c2.66,0.04,4.21-0.63,4.27-4.55c0.02-1.54-0.21-4.34-0.21-4.34
		l3.78,0.06l1.22,19.48l-0.05,3.08l-30.26-7.63l-0.02,1.4c9.31,4.49,30.59,13.38,30.4,24.72c-0.07,4.34-2.78,7.66-8.24,7.57
		c-6.16-0.1-8.76-3.92-8.7-7.56c0.07-4.48,5.27-5.8,5.28-6.22c0.09-5.74-21.72-16.31-34.93-21.99l-19.95-4.66L697.8,381.56z"/>
</g>
</svg>
