<?xml version="1.0" encoding="UTF-8" standalone="no"?>
<!-- Created with Inkscape (http://www.inkscape.org/) -->

<svg
   width="42.697067mm"
   height="10.953523mm"
   viewBox="0 0 42.697067 10.953523"
   version="1.1"
   id="svg1"
   inkscape:version="1.4 (e7c3feb1, 2024-10-09)"
   sodipodi:docname="logo.svg"
   xmlns:inkscape="http://www.inkscape.org/namespaces/inkscape"
   xmlns:sodipodi="http://sodipodi.sourceforge.net/DTD/sodipodi-0.dtd"
   xmlns="http://www.w3.org/2000/svg"
   xmlns:svg="http://www.w3.org/2000/svg">
  <sodipodi:namedview
     id="namedview1"
     pagecolor="#505050"
     bordercolor="#ffffff"
     borderopacity="1"
     inkscape:showpageshadow="0"
     inkscape:pageopacity="0"
     inkscape:pagecheckerboard="1"
     inkscape:deskcolor="#d1d1d1"
     inkscape:document-units="mm"
     inkscape:zoom="4"
     inkscape:cx="84.5"
     inkscape:cy="4.375"
     inkscape:window-width="1472"
     inkscape:window-height="890"
     inkscape:window-x="0"
     inkscape:window-y="875"
     inkscape:window-maximized="1"
     inkscape:current-layer="layer1" />
  <defs
     id="defs1" />
  <g
     inkscape:label="Calque 1"
     inkscape:groupmode="layer"
     id="layer1"
     transform="translate(-83.651466,-143.02324)">
    <path
       id="rect2"
       style="fill:#ffffff;stroke-width:0.2;stroke-linecap:round;stroke-linejoin:round"
       d="m 83.651466,143.02324 h 42.697064 v 10.95352 H 83.651466 Z" />
    <path
       style="font-weight:300;font-stretch:normal;font-size:4.23333px;font-family:'Droulers Clarendon';-inkscape-font-specification:'Droulers Clarendon Light';text-align:center;text-anchor:middle;fill:#263a2e;stroke-width:0.2;stroke-linecap:round;stroke-linejoin:round"
       d="m 87.916395,147.48646 h -0.668866 c -0.09737,0 -0.148166,-0.0508 -0.148166,-0.14817 v -2.4765 h 0.579966 c 0.287866,0 0.431799,0.14394 0.431799,0.42757 v 0.56727 h 0.1905 v -1.16417 h -2.793997 v 1.16417 h 0.190499 v -0.56727 c 0,-0.28363 0.143934,-0.42757 0.4318,-0.42757 h 0.579966 v 2.4765 c 0,0.0974 -0.0508,0.14817 -0.148166,0.14817 h -0.668866 v 0.16933 h 2.023531 z m 3.310463,0.16933 v -0.16933 h -0.321733 c -0.08467,0 -0.127,-0.0423 -0.127,-0.127 v -1.82033 h -2.222498 v 0.16933 h 0.321733 c 0.08467,0 0.127,0.0423 0.127,0.127 v 1.0541 c 0,0.5588 0.300566,0.80857 0.732366,0.80857 0.347133,0 0.588433,-0.18204 0.698499,-0.52917 v 0.48683 z m -1.862665,-0.78316 v -1.16417 h 0.927099 c 0.08467,0 0.127,0.0423 0.127,0.127 v 0.8636 c 0,0.51647 -0.2413,0.8001 -0.579966,0.8001 -0.3302,0 -0.474133,-0.19473 -0.474133,-0.62653 z m 2.074334,-1.3335 v 0.16933 h 0.321733 c 0.08467,0 0.127,0.0423 0.127,0.127 v 1.524 c 0,0.0847 -0.04233,0.127 -0.127,0.127 h -0.321733 v 0.16933 h 1.540932 v -0.16933 h -0.605366 c -0.08467,0 -0.127,-0.0423 -0.127,-0.127 v -0.7874 c -0.0042,-0.47837 0.287866,-0.74083 0.685799,-0.74083 h 0.262467 v -0.33444 h -0.1651 c -0.372533,0 -0.732366,0.2667 -0.821266,0.78317 v -0.74083 z m 2.590796,-0.30057 c 0.169333,0 0.2921,-0.11853 0.2921,-0.29633 0,-0.17357 -0.122767,-0.2921 -0.2921,-0.2921 -0.169333,0 -0.2921,0.11853 -0.2921,0.2921 0,0.1778 0.122767,0.29633 0.2921,0.29633 z m -0.618066,0.30057 v 0.16933 h 0.321733 c 0.08467,0 0.127,0.0423 0.127,0.127 v 1.524 c 0,0.0847 -0.04233,0.127 -0.127,0.127 h -0.321733 v 0.16933 h 1.257299 v -0.16933 h -0.321733 c -0.08467,0 -0.127,-0.0423 -0.127,-0.127 v -1.82033 z m 4.178297,1.94733 h -0.321733 c -0.08467,0 -0.127,-0.0423 -0.127,-0.127 v -1.03717 c -0.0042,-0.56726 -0.309033,-0.8255 -0.753533,-0.8255 -0.359833,0 -0.613832,0.19474 -0.719666,0.5588 v -0.51646 h -0.787399 v 0.16933 h 0.321733 c 0.08467,0 0.127,0.0423 0.127,0.127 v 1.524 c 0,0.0847 -0.04233,0.127 -0.127,0.127 h -0.321733 v 0.16933 h 2.709331 z m -1.900765,-0.127 v -0.84667 c 0.0042,-0.52493 0.249766,-0.81703 0.596899,-0.81703 0.3429,0 0.486833,0.2032 0.491067,0.64347 v 1.02023 c 0,0.0847 -0.04233,0.127 -0.127,0.127 h -0.833966 c -0.08467,0 -0.127,-0.0423 -0.127,-0.127 z m 3.314695,-1.86267 c -0.507999,0 -0.897466,0.254 -0.897466,0.70697 0,0.22013 0.09313,0.3937 0.249767,0.51647 -0.2921,0.0423 -0.491066,0.19473 -0.491066,0.43603 0,0.2794 0.237066,0.4445 0.575732,0.4572 -0.347133,0.0635 -0.533399,0.21167 -0.533399,0.44027 0,0.30479 0.300566,0.49106 1.138766,0.49106 0.740832,0 1.083732,-0.24553 1.083732,-0.66886 0,-0.38947 -0.283633,-0.59267 -0.825499,-0.59267 h -0.778933 c -0.283633,0 -0.3937,-0.0931 -0.3937,-0.25823 0,-0.13124 0.110067,-0.22437 0.334433,-0.23707 0.148167,0.0804 0.334433,0.12277 0.537633,0.12277 0.508,0 0.897466,-0.26247 0.897466,-0.70697 0,-0.2159 -0.1651,-0.4064 -0.524933,-0.4953 h 0.821263 v -0.16933 h -0.876296 c -0.09737,-0.0296 -0.2032,-0.0423 -0.3175,-0.0423 z m 0,1.23614 c -0.368299,0 -0.516466,-0.2032 -0.516466,-0.52917 0,-0.3302 0.148167,-0.52917 0.516466,-0.52917 0.372533,0 0.516466,0.19897 0.516466,0.52917 0,0.32597 -0.143933,0.52917 -0.516466,0.52917 z m 0.04233,0.8763 c 0.592666,0 0.812799,0.13546 0.812799,0.3683 0,0.24553 -0.220133,0.38946 -0.812799,0.38946 -0.563033,0 -0.778933,-0.14393 -0.778933,-0.38946 0,-0.23284 0.2159,-0.3683 0.778933,-0.3683 z m 2.624676,-1.02447 v -0.3556 h -1.17687 v 0.3556 z m 2.73473,-0.13547 v 0.60537 c 0,0.28787 -0.1397,0.4318 -0.42333,0.4318 h -1.00754 v -1.24883 h 0.33444 c 0.2286,0 0.3429,0.1143 0.3429,0.34713 v 0.35983 h 0.1905 v -1.58326 h -0.1905 v 0.35983 c 0,0.23283 -0.1143,0.34713 -0.3429,0.34713 h -0.33444 v -1.2065 h 1.00754 c 0.28363,0 0.42333,0.14394 0.42333,0.42757 v 0.56727 h 0.19473 v -1.16417 h -2.54846 v 0.16933 h 0.38523 c 0.0974,0 0.14817,0.0508 0.14817,0.14817 v 2.32833 c 0,0.0974 -0.0508,0.14817 -0.14817,0.14817 h -0.38523 v 0.16933 h 2.54846 v -1.2065 z m 3.00566,1.03717 h -0.12276 c -0.19474,0 -0.2159,-0.004 -0.33867,-0.17357 l -0.56727,-0.762 0.51647,-0.66886 c 0.13123,-0.1651 0.1524,-0.17357 0.3429,-0.17357 h 0.14817 v -0.16933 h -2.3749 v 0.16933 h 0.12276 c 0.19474,0 0.2159,0.004 0.3429,0.17357 l 0.5334,0.7239 -0.52916,0.70696 c -0.127,0.16934 -0.1524,0.17357 -0.35984,0.17357 h -0.14393 v 0.16933 h 2.42993 z m -1.56633,-1.6637 c -0.0423,-0.0593 -0.008,-0.1143 0.072,-0.1143 h 0.7239 c 0.0804,0 0.11853,0.0593 0.072,0.1143 l -0.43603,0.5842 z m -0.10583,1.6637 c -0.0804,0 -0.11854,-0.055 -0.072,-0.1143 l 0.4572,-0.61807 0.4572,0.61807 c 0.0423,0.0593 0.004,0.1143 -0.072,0.1143 z m 1.82033,1.016 h 1.54093 v -0.16934 h -0.60536 c -0.0847,0 -0.127,-0.0423 -0.127,-0.12699 v -0.97367 c 0.14393,0.29633 0.40216,0.46567 0.7493,0.46567 0.55033,0 0.98636,-0.381 0.98636,-1.10067 0,-0.71967 -0.43603,-1.10067 -0.98636,-1.10067 -0.381,0 -0.65617,0.2032 -0.7874,0.55457 v -0.51223 h -0.77047 v 0.16933 h 0.32173 c 0.0847,0 0.127,0.0423 0.127,0.127 v 2.37067 c 0,0.0847 -0.0423,0.12699 -0.127,0.12699 h -0.32173 z m 2.15053,-1.905 c 0,0.58843 -0.2159,0.91863 -0.6731,0.91863 -0.45296,0 -0.66886,-0.3302 -0.66886,-0.91863 0,-0.58843 0.2159,-0.91863 0.66886,-0.91863 0.4572,0 0.6731,0.3302 0.6731,0.91863 z m 0.75354,-1.05833 v 0.16933 h 0.32173 c 0.0847,0 0.127,0.0423 0.127,0.127 v 1.524 c 0,0.0847 -0.0423,0.127 -0.127,0.127 h -0.32173 v 0.16933 h 1.54093 v -0.16933 h -0.60537 c -0.0847,0 -0.127,-0.0423 -0.127,-0.127 v -0.7874 c -0.004,-0.47837 0.28787,-0.74083 0.6858,-0.74083 h 0.26247 v -0.33444 h -0.1651 c -0.37253,0 -0.73237,0.2667 -0.82127,0.78317 v -0.74083 z m 3.14959,-0.0423 c -0.58843,0 -1.0287,0.4064 -1.0287,1.10067 0,0.69427 0.4572,1.10067 1.06257,1.10067 0.56727,0 0.99483,-0.4064 0.99483,-1.10067 0,-0.69427 -0.4445,-1.10067 -1.0287,-1.10067 z m 0,0.1778 c 0.38524,0 0.57997,0.23707 0.6223,0.75777 h -1.26576 c 0.0423,-0.51223 0.2667,-0.75777 0.64346,-0.75777 z m 0.0804,1.83727 c -0.4826,0 -0.72814,-0.33443 -0.72814,-0.91017 h 1.49437 c -0.0169,0.6096 -0.33443,0.91017 -0.76623,0.91017 z m 3.24273,-1.97273 h -0.15663 l -0.0593,0.41063 c -0.127,-0.32173 -0.4318,-0.45297 -0.762,-0.45297 -0.4572,0 -0.74507,0.23707 -0.74507,0.6477 v 1.5113 h 0.15664 l 0.0635,-0.4318 c 0.12276,0.3175 0.42756,0.47414 0.78316,0.47414 0.508,0 0.8255,-0.23707 0.8255,-0.6477 0,-0.14817 -0.0381,-0.25824 -0.10583,-0.3429 z m -0.79163,0.88053 c -0.34714,-0.0423 -0.6604,-0.0847 -0.6604,-0.3556 0,-0.22013 0.14816,-0.37677 0.5334,-0.37677 0.4445,0 0.67733,0.25824 0.7239,0.70697 l 0.0169,0.17357 c -0.16933,-0.0889 -0.39793,-0.11854 -0.61383,-0.14817 z m -0.7366,0.381 -0.0127,-0.24977 c 0.16933,0.13124 0.43603,0.16934 0.6858,0.2032 0.3556,0.0466 0.69003,0.0804 0.69003,0.3683 0,0.22437 -0.16087,0.38524 -0.58843,0.38524 -0.47837,0 -0.7493,-0.27094 -0.7747,-0.70697 z m 3.90736,-1.26153 h -0.15663 l -0.0593,0.41063 c -0.127,-0.32173 -0.4318,-0.45297 -0.762,-0.45297 -0.4572,0 -0.74506,0.23707 -0.74506,0.6477 v 1.5113 h 0.15663 l 0.0635,-0.4318 c 0.12277,0.3175 0.42757,0.47414 0.78317,0.47414 0.508,0 0.8255,-0.23707 0.8255,-0.6477 0,-0.14817 -0.0381,-0.25824 -0.10584,-0.3429 z m -0.79163,0.88053 c -0.34713,-0.0423 -0.6604,-0.0847 -0.6604,-0.3556 0,-0.22013 0.14817,-0.37677 0.5334,-0.37677 0.4445,0 0.67733,0.25824 0.7239,0.70697 l 0.0169,0.17357 c -0.16933,-0.0889 -0.39793,-0.11854 -0.61383,-0.14817 z m -0.7366,0.381 -0.0127,-0.24977 c 0.16933,0.13124 0.43603,0.16934 0.6858,0.2032 0.3556,0.0466 0.69003,0.0804 0.69003,0.3683 0,0.22437 -0.16086,0.38524 -0.58843,0.38524 -0.47837,0 -0.7493,-0.27094 -0.7747,-0.70697 z m 2.413,0.23707 c -0.18627,0 -0.3302,0.13546 -0.3302,0.3302 0,0.19896 0.14393,0.3302 0.3302,0.3302 0.1905,0 0.3302,-0.13124 0.3302,-0.3302 0,-0.19474 -0.1397,-0.3302 -0.3302,-0.3302 z m 1.10066,0.32173 c 0,0.0847 -0.0423,0.127 -0.12699,0.127 h -0.32174 v 0.16933 h 1.54093 v -0.16933 h -0.60536 c -0.0847,0 -0.127,-0.0423 -0.127,-0.127 v -1.651 h 0.8636 v -0.16933 h -0.8636 v -0.0339 c 0,-0.42333 0.13123,-0.6858 0.51646,-0.6858 0.127,0 0.25824,0.0254 0.34714,0.0847 -0.11007,0.0127 -0.18627,0.0931 -0.18627,0.21166 0,0.13124 0.0974,0.22014 0.23283,0.22014 0.16087,0 0.24554,-0.10584 0.24554,-0.2667 0,-0.26247 -0.254,-0.4191 -0.63077,-0.4191 -0.46567,0 -0.88477,0.22436 -0.88477,0.8763 v 0.0127 h -0.44873 v 0.16933 h 0.44873 z m 1.4351,-1.82033 v 0.16933 h 0.32173 c 0.0847,0 0.127,0.0423 0.127,0.127 v 1.524 c 0,0.0847 -0.0423,0.127 -0.127,0.127 h -0.32173 v 0.16933 h 1.54093 v -0.16933 h -0.60536 c -0.0847,0 -0.127,-0.0423 -0.127,-0.127 v -0.7874 c -0.004,-0.47837 0.28786,-0.74083 0.68579,-0.74083 h 0.26247 v -0.33444 h -0.1651 c -0.37253,0 -0.73236,0.2667 -0.82126,0.78317 v -0.74083 z"
       id="path2" />
    <path
       style="font-weight:300;font-stretch:normal;font-size:2.82223px;font-family:'Brut Grotesque';-inkscape-font-specification:'Brut Grotesque Light';text-align:center;text-anchor:middle;fill:#263a2e;stroke-width:0.2;stroke-linecap:round;stroke-linejoin:round"
       d="m 86.607527,151.78543 h 0.666047 c 0.626535,0 1.018825,-0.37536 1.018825,-0.98778 0,-0.61243 -0.39229,-0.98778 -1.018825,-0.98778 h -0.666047 z m 0.640646,-1.74696 c 0.485424,0 0.773291,0.24835 0.773291,0.75918 0,0.51082 -0.287867,0.75918 -0.773291,0.75918 H 86.86435 v -1.51836 z m 2.108208,0.16369 0.276579,-0.39229 h -0.307623 l -0.174979,0.39229 z m 0.516468,1.15993 H 89.60756 c -0.03387,0.14394 -0.143934,0.24836 -0.352779,0.24836 -0.237068,0 -0.403579,-0.1524 -0.412046,-0.45438 h 1.058336 v -0.0762 c 0,-0.48542 -0.276578,-0.73378 -0.649112,-0.73378 -0.39229,0 -0.671691,0.24271 -0.671691,0.73378 0,0.49107 0.282223,0.73378 0.674513,0.73378 0.333023,0 0.575735,-0.16933 0.618068,-0.45156 z m -0.62089,-0.8128 c 0.214489,0 0.361245,0.13829 0.386645,0.40358 h -0.793047 c 0.0254,-0.26811 0.183445,-0.40358 0.406402,-0.40358 z m 1.354668,1.23614 h 0.2286 l 0.558802,-1.41112 h -0.273756 l -0.200379,0.54187 c -0.08749,0.23425 -0.146756,0.40358 -0.200378,0.59267 -0.05362,-0.18909 -0.110067,-0.35842 -0.200378,-0.59267 l -0.200379,-0.54187 h -0.270934 z m 2.226741,-0.42334 h -0.26529 c -0.03387,0.14394 -0.143933,0.24836 -0.352778,0.24836 -0.237068,0 -0.403579,-0.1524 -0.412046,-0.45438 h 1.058336 v -0.0762 c 0,-0.48542 -0.276578,-0.73378 -0.649113,-0.73378 -0.39229,0 -0.67169,0.24271 -0.67169,0.73378 0,0.49107 0.282223,0.73378 0.674513,0.73378 0.333023,0 0.575735,-0.16933 0.618068,-0.45156 z m -0.620891,-0.8128 c 0.21449,0 0.361246,0.13829 0.386646,0.40358 h -0.793047 c 0.0254,-0.26811 0.183445,-0.40358 0.406401,-0.40358 z m 1.236135,-0.73942 h -0.254 v 1.97556 h 0.254 z m 1.001891,2.00378 c 0.39229,0 0.674513,-0.24553 0.674513,-0.73378 0,-0.48825 -0.282223,-0.73378 -0.674513,-0.73378 -0.392289,0 -0.67169,0.24553 -0.67169,0.73378 0,0.48825 0.279401,0.73378 0.67169,0.73378 z m 0,-0.2032 c -0.239889,0 -0.403578,-0.1778 -0.403578,-0.53058 0,-0.35278 0.163689,-0.53058 0.403578,-0.53058 0.242712,0 0.406402,0.1778 0.406402,0.53058 0,0.35278 -0.16369,0.53058 -0.406402,0.53058 z m 1.763895,0.2032 c 0.338668,0 0.587024,-0.25965 0.587024,-0.73378 0,-0.47414 -0.248356,-0.73378 -0.587024,-0.73378 -0.225778,0 -0.409223,0.11571 -0.508001,0.33585 v -0.30763 H 95.45804 v 1.97556 h 0.254001 v -0.86078 c 0.09878,0.21167 0.279401,0.32456 0.502357,0.32456 z m -0.09313,-0.2032 c -0.245534,0 -0.409224,-0.18062 -0.409224,-0.53058 0,-0.34996 0.16369,-0.53058 0.409224,-0.53058 0.248356,0 0.412045,0.18062 0.412045,0.53058 0,0.34996 -0.163689,0.53058 -0.412045,0.53058 z m 1.775184,0.2032 c 0.338667,0 0.587024,-0.25965 0.587024,-0.73378 0,-0.47414 -0.248357,-0.73378 -0.587024,-0.73378 -0.225779,0 -0.409224,0.11571 -0.508002,0.33585 v -0.30763 h -0.248356 v 1.97556 h 0.254001 v -0.86078 c 0.09878,0.21167 0.279401,0.32456 0.502357,0.32456 z m -0.09313,-0.2032 c -0.245534,0 -0.409223,-0.18062 -0.409223,-0.53058 0,-0.34996 0.163689,-0.53058 0.409223,-0.53058 0.248356,0 0.412046,0.18062 0.412046,0.53058 0,0.34996 -0.16369,0.53058 -0.412046,0.53058 z m 2.238038,-0.24836 h -0.265296 c -0.03387,0.14394 -0.143934,0.24836 -0.352779,0.24836 -0.237067,0 -0.403579,-0.1524 -0.412046,-0.45438 h 1.058341 v -0.0762 c 0,-0.48542 -0.276583,-0.73378 -0.649117,-0.73378 -0.39229,0 -0.671691,0.24271 -0.671691,0.73378 0,0.49107 0.282223,0.73378 0.674513,0.73378 0.333023,0 0.575735,-0.16933 0.618075,-0.45156 z m -0.620897,-0.8128 c 0.214489,0 0.361245,0.13829 0.386645,0.40358 h -0.793047 c 0.0254,-0.26811 0.183445,-0.40358 0.406402,-0.40358 z m 1.230497,-0.17498 h -0.24836 v 1.41112 h 0.254 v -0.84103 c 0,-0.25682 0.12136,-0.38947 0.31609,-0.38947 0.18062,0 0.28222,0.10725 0.28222,0.34149 v 0.88901 h 0.254 v -0.84103 c 0,-0.25682 0.12418,-0.38947 0.31609,-0.38947 0.18345,0 0.28505,0.10725 0.28505,0.34149 v 0.88901 h 0.254 v -0.91441 c 0,-0.35842 -0.1778,-0.52493 -0.44309,-0.52493 -0.20602,0 -0.36407,0.1016 -0.44309,0.29069 -0.0621,-0.19756 -0.20885,-0.29069 -0.40358,-0.29069 -0.19191,0 -0.34431,0.0903 -0.42333,0.26247 z m 3.32458,0.98778 h -0.26529 c -0.0339,0.14394 -0.14393,0.24836 -0.35278,0.24836 -0.23706,0 -0.40358,-0.1524 -0.41204,-0.45438 h 1.05833 v -0.0762 c 0,-0.48542 -0.27657,-0.73378 -0.64911,-0.73378 -0.39229,0 -0.67169,0.24271 -0.67169,0.73378 0,0.49107 0.28222,0.73378 0.67451,0.73378 0.33303,0 0.57574,-0.16933 0.61807,-0.45156 z m -0.62089,-0.8128 c 0.21449,0 0.36125,0.13829 0.38665,0.40358 h -0.79305 c 0.0254,-0.26811 0.18344,-0.40358 0.4064,-0.40358 z m 1.23049,-0.17498 h -0.24835 v 1.41112 h 0.254 v -0.80716 c 0,-0.2794 0.14111,-0.42334 0.36124,-0.42334 0.20885,0 0.3302,0.11854 0.3302,0.37536 v 0.85514 h 0.254 v -0.88336 c 0,-0.37818 -0.19473,-0.55598 -0.47978,-0.55598 -0.21731,0 -0.38664,0.1016 -0.47131,0.29069 z m 1.67923,1.00189 v -0.79869 h 0.37535 v -0.2032 h -0.37535 v -0.36689 h -0.254 v 0.36689 h -0.24272 v 0.2032 h 0.24272 v 0.83538 c 0,0.27658 0.127,0.37254 0.36689,0.37254 h 0.26246 v -0.2032 h -0.19191 c -0.12418,0 -0.18344,-0.048 -0.18344,-0.20603 z m 1.52682,-1.56633 h -0.25682 v 1.97556 h 0.25682 z m 0.68298,0.56444 h -0.24836 v 1.41112 h 0.25401 v -0.80716 c 0,-0.2794 0.14111,-0.42334 0.36124,-0.42334 0.20885,0 0.3302,0.11854 0.3302,0.37536 v 0.85514 h 0.254 v -0.88336 c 0,-0.37818 -0.19473,-0.55598 -0.47978,-0.55598 -0.21731,0 -0.38664,0.1016 -0.47131,0.29069 z m 1.18251,0.2032 h 0.24272 v 1.20792 h 0.254 v -1.20792 h 0.37535 v -0.2032 h -0.37535 v -0.15522 c 0,-0.15805 0.0593,-0.20602 0.18344,-0.20602 h 0.21731 v -0.2032 h -0.28787 c -0.23988,0 -0.36688,0.096 -0.36688,0.37253 v 0.19191 h -0.24272 z m 1.71592,1.23614 c 0.39229,0 0.67451,-0.24553 0.67451,-0.73378 0,-0.48825 -0.28222,-0.73378 -0.67451,-0.73378 -0.39229,0 -0.67169,0.24553 -0.67169,0.73378 0,0.48825 0.2794,0.73378 0.67169,0.73378 z m 0,-0.2032 c -0.23989,0 -0.40358,-0.1778 -0.40358,-0.53058 0,-0.35278 0.16369,-0.53058 0.40358,-0.53058 0.24271,0 0.4064,0.1778 0.4064,0.53058 0,0.35278 -0.16369,0.53058 -0.4064,0.53058 z m 1.24178,-1.23614 h -0.23424 v 1.41112 h 0.254 v -0.75072 c 0,-0.29633 0.1778,-0.44026 0.42616,-0.44026 0.0395,0 0.0706,0.006 0.0988,0.0141 v -0.23425 c -0.0282,-0.008 -0.0564,-0.0113 -0.0988,-0.0113 -0.21167,0 -0.37536,0.11289 -0.44592,0.3556 z m 1.06963,0 h -0.24836 v 1.41112 h 0.254 v -0.84103 c 0,-0.25682 0.12136,-0.38947 0.31609,-0.38947 0.18063,0 0.28223,0.10725 0.28223,0.34149 v 0.88901 h 0.254 v -0.84103 c 0,-0.25682 0.12418,-0.38947 0.31609,-0.38947 0.18344,0 0.28504,0.10725 0.28504,0.34149 v 0.88901 h 0.254 v -0.91441 c 0,-0.35842 -0.1778,-0.52493 -0.44309,-0.52493 -0.20602,0 -0.36406,0.1016 -0.44309,0.29069 -0.0621,-0.19756 -0.20884,-0.29069 -0.40358,-0.29069 -0.19191,0 -0.34431,0.0903 -0.42333,0.26247 z m 3.31047,1.41112 c -0.0847,-0.21167 -0.0875,-0.23425 -0.0875,-0.41205 v -0.59267 c 0,-0.28786 -0.21732,-0.43462 -0.5701,-0.43462 -0.3556,0 -0.57291,0.14111 -0.57573,0.42333 h 0.25682 c 0.006,-0.14393 0.127,-0.21449 0.31891,-0.21449 0.20038,0 0.31609,0.0706 0.31609,0.22296 0,0.1778 -0.21166,0.19191 -0.43744,0.22296 -0.24836,0.0339 -0.51082,0.0847 -0.51082,0.4064 0,0.26811 0.20884,0.4064 0.46002,0.4064 0.22295,0 0.39511,-0.0988 0.47978,-0.27376 l 0.0847,0.24554 z m -1.02729,-0.4064 c 0,-0.18063 0.1778,-0.22578 0.36125,-0.27094 0.11853,-0.0282 0.23989,-0.0564 0.32455,-0.11571 v 0.20885 c 0,0.26246 -0.18626,0.40922 -0.38946,0.40922 -0.18345,0 -0.29634,-0.0706 -0.29634,-0.23142 z m 1.66794,-0.003 v -0.79869 h 0.37536 v -0.2032 h -0.37536 v -0.36689 h -0.254 v 0.36689 h -0.24271 v 0.2032 h 0.24271 v 0.83538 c 0,0.27658 0.127,0.37254 0.36689,0.37254 h 0.26247 v -0.2032 h -0.19191 c -0.12418,0 -0.18345,-0.048 -0.18345,-0.20603 z m 0.90876,-1.56633 h -0.26811 v 0.26529 h 0.26811 z m -0.006,0.56444 h -0.254 v 1.41112 h 0.254 z m 0.92004,1.43934 c 0.22296,0 0.4064,-0.11289 0.50518,-0.32456 v 0.86078 h 0.254 v -1.97556 h -0.24835 v 0.30763 c -0.0988,-0.22014 -0.28505,-0.33585 -0.51083,-0.33585 -0.33866,0 -0.5842,0.25964 -0.5842,0.73378 0,0.47413 0.24554,0.73378 0.5842,0.73378 z m 0.0931,-0.2032 c -0.24554,0 -0.41205,-0.18062 -0.41205,-0.53058 0,-0.34996 0.16651,-0.53058 0.41205,-0.53058 0.24835,0 0.41204,0.18062 0.41204,0.53058 0,0.34996 -0.16369,0.53058 -0.41204,0.53058 z m 1.05833,-0.33867 c 0,0.36971 0.18909,0.54187 0.46567,0.54187 0.20885,0 0.37254,-0.096 0.4572,-0.2794 v 0.25118 h 0.24836 v -1.41112 h -0.254 v 0.82409 c 0,0.26812 -0.13547,0.4064 -0.34714,0.4064 -0.20037,0 -0.31609,-0.11571 -0.31609,-0.35842 v -0.87207 h -0.254 z m 2.79684,0.0903 h -0.26529 c -0.0339,0.14394 -0.14394,0.24836 -0.35278,0.24836 -0.23707,0 -0.40358,-0.1524 -0.41205,-0.45438 h 1.05834 v -0.0762 c 0,-0.48542 -0.27658,-0.73378 -0.64911,-0.73378 -0.39229,0 -0.6717,0.24271 -0.6717,0.73378 0,0.49107 0.28223,0.73378 0.67452,0.73378 0.33302,0 0.57573,-0.16933 0.61807,-0.45156 z m -0.62089,-0.8128 c 0.21449,0 0.36124,0.13829 0.38664,0.40358 h -0.79305 c 0.0254,-0.26811 0.18345,-0.40358 0.40641,-0.40358 z"
       id="path3" />
  </g>
</svg>
